<?xml version="1.0" encoding="utf-8"?>
<!-- Generator: Adobe Illustrator 19.2.1, SVG Export Plug-In . SVG Version: 6.00 Build 0)  -->
<svg version="1.1" id="Camada_1" xmlns="http://www.w3.org/2000/svg" xmlns:xlink="http://www.w3.org/1999/xlink" x="0px" y="0px"
	 viewBox="0 0 34.1 15" style="enable-background:new 0 0 34.1 15;" xml:space="preserve">
<style type="text/css">
	.st0{fill:#333333;}
	.st1{fill:#FF0000;}
</style>
<path class="st0" d="M4.1,0v15h0.7V0H4.1z M6.8,0v9.5h0.7V0H6.8z M9.5,0v9.5h0.7V0H9.5z M12.3,0v9.5H13V0H12.3z M15,0v9.5h0.7V0H15z
	 M17.7,0v9.5h0.7V0H17.7z M20.5,0v9.5h0.7V0H20.5z M23.2,0v9.5h0.7V0H23.2z M25.9,0v9.5h0.7V0H25.9z M28.6,0v15h0.7V0H28.6z
	 M6.8,10.9V15h1.6c0.2,0,0.3,0,0.5-0.1c0.1,0,0.3-0.1,0.4-0.2c0.1-0.1,0.2-0.2,0.2-0.3c0.1-0.2,0.2-0.4,0.2-0.6
	c0-0.2-0.1-0.4-0.1-0.6c-0.1-0.2-0.2-0.3-0.4-0.4c0.1-0.1,0.2-0.1,0.2-0.2c0.1-0.1,0.1-0.3,0.1-0.6c0-0.2,0-0.5-0.1-0.6
	c-0.2-0.3-0.5-0.4-0.9-0.4L6.8,10.9L6.8,10.9z M12,10.9c-0.5,0-0.9,0.1-1.1,0.4c-0.4,0.4-0.5,0.9-0.5,1.6c0,0.7,0.2,1.2,0.5,1.6
	c0.3,0.3,0.6,0.4,1.2,0.4s0.9-0.1,1.2-0.4c0.4-0.4,0.5-0.9,0.5-1.6c0-0.7-0.2-1.2-0.5-1.6C12.9,11.1,12.5,10.9,12,10.9L12,10.9z
	 M14.4,10.9V15h2.5v-0.6h-1.8v-3.5H14.4L14.4,10.9z M20.8,10.9v0.6h1.1V15h0.7v-3.5h1.1v-0.6H20.8z M25.6,10.9
	c-0.5,0-0.9,0.1-1.2,0.4c-0.4,0.4-0.5,0.9-0.5,1.6c0,0.7,0.2,1.2,0.5,1.6c0.3,0.3,0.7,0.4,1.2,0.4c0.5,0,0.9-0.1,1.2-0.4
	c0.4-0.4,0.5-0.9,0.5-1.6c0-0.7-0.2-1.2-0.5-1.6C26.5,11.1,26.1,10.9,25.6,10.9L25.6,10.9z M17.5,11.1V15h2.6v-0.8h-1.9v-1h1.7v-0.6
	h-1.7v-0.8h1.8v-0.6H17.5L17.5,11.1z M7.5,11.5h0.7c0.2,0,0.3,0,0.4,0.1c0.1,0.1,0.2,0.2,0.2,0.4c0,0.2,0,0.3-0.1,0.4
	c-0.1,0.1-0.2,0.1-0.3,0.1H7.5L7.5,11.5L7.5,11.5z M12,11.5c0.3,0,0.5,0.1,0.7,0.4c0.2,0.2,0.3,0.6,0.3,1.1c0,0.5-0.1,0.8-0.3,1.1
	c-0.2,0.2-0.4,0.4-0.7,0.4c-0.3,0-0.5-0.1-0.7-0.4C11.1,13.8,11,13.4,11,13c0-0.5,0.1-0.8,0.3-1.1C11.4,11.6,11.7,11.5,12,11.5
	L12,11.5z M25.6,11.5c0.3,0,0.5,0.1,0.7,0.4c0.2,0.2,0.3,0.6,0.3,1.1c0,0.5-0.1,0.8-0.3,1.1c-0.2,0.2-0.4,0.4-0.7,0.4
	S25,14.3,24.9,14c-0.2-0.3-0.3-0.6-0.3-1.1c0-0.5,0.1-0.8,0.3-1.1C25,11.6,25.3,11.5,25.6,11.5L25.6,11.5z M7.5,13.2h0.9
	c0.1,0,0.3,0,0.3,0.1c0.1,0.1,0.2,0.3,0.2,0.5c0,0.3-0.1,0.5-0.2,0.6c-0.1,0.1-0.2,0.1-0.4,0.1H7.5V13.2L7.5,13.2z"/>
<path class="st1" d="M0,4.1h34.1v1.4H0V4.1z"/>
</svg>
