<?xml version="1.0" encoding="utf-8"?>
<!-- Generator: Adobe Illustrator 19.2.1, SVG Export Plug-In . SVG Version: 6.00 Build 0)  -->
<svg version="1.1" id="Camada_1" xmlns="http://www.w3.org/2000/svg" xmlns:xlink="http://www.w3.org/1999/xlink" x="0px" y="0px"
	 viewBox="0 0 32.7 20" style="enable-background:new 0 0 32.7 20;" xml:space="preserve">
<style type="text/css">
	.st0{fill:#285AA0;}
	.st1{fill:#FFFFFF;}
</style>
<path class="st0" d="M22.2,20c5.5,0,10.5-4.5,10.5-9.9c0-6-5-10.1-10.5-10.1H10.1C4.6,0,0,4.1,0,10.1C0,15.5,4.6,20,10.1,20
	C10.1,20,22.2,20,22.2,20z"/>
<path class="st1" d="M12.2,15.4V4.6C14.4,5.4,16,7.5,16,10S14.4,14.6,12.2,15.4z M4.3,10c0-2.5,1.5-4.6,3.7-5.4v10.8
	C5.9,14.6,4.3,12.5,4.3,10z M10.2,0.8C5.1,0.8,1,4.9,1,10c0,5.1,4.1,9.2,9.2,9.2c5.1,0,9.2-4.1,9.2-9.2S15.2,0.8,10.2,0.8z"/>
</svg>
