<?xml version="1.0" encoding="utf-8"?>
<!-- Generator: Adobe Illustrator 19.2.1, SVG Export Plug-In . SVG Version: 6.00 Build 0)  -->
<svg version="1.1" id="Camada_1" xmlns="http://www.w3.org/2000/svg" xmlns:xlink="http://www.w3.org/1999/xlink" x="0px" y="0px"
	 viewBox="0 0 20 20" style="enable-background:new 0 0 20 20;" xml:space="preserve">
<style type="text/css">
	.st0{fill:#141414;}
	.st1{fill:#FFFFFF;}
	.st2{fill:#C81E00;}
	.st3{fill:#FAFA00;}
</style>
<path class="st0" d="M10,0c5.5,0,10,4.5,10,10s-4.5,10-10,10S0,15.5,0,10S4.5,0,10,0z"/>
<path class="st1" d="M9.1,11.8c0,0.6,0.1,0.8,0.6,1l1.1,0.5l0.4-1.1l-1-0.4c-0.1,0-0.1-0.1-0.1-0.1V6H9.1L9.1,11.8z M7.9,12.6
	l-0.9-0.9c-0.7,0.6-1.5,0.6-2.2,0.2L4,13C5.3,13.7,6.8,13.6,7.9,12.6z M5.7,7.3c-1.7,0-3.1,1.4-3.1,3.1c0,0.6,0.2,1.2,0.5,1.7l3-1.3
	l1.3-0.6l1.2-0.5C8.4,8.3,7.2,7.3,5.7,7.3z M7,9.2L4,10.6l0-0.2c0-1,0.8-1.8,1.8-1.8C6.2,8.6,6.7,8.9,7,9.2z"/>
<path class="st2" d="M16.4,12.6c-0.5,0.5-1.3,0.8-2.1,0.8c-1.7,0-3-1.4-3-3c0-0.5,0.1-0.9,0.3-1.3l1.1,0.6c-0.1,0.2-0.2,0.5-0.2,0.7
	c0,1,0.8,1.7,1.7,1.7c0.5,0,0.9-0.2,1.2-0.5L16.4,12.6z"/>
<path class="st3" d="M14.3,7.3c1.7,0,3,1.4,3,3c0,0.5-0.1,0.9-0.3,1.3L15.9,11c0.1-0.2,0.1-0.4,0.1-0.7c0-1-0.8-1.7-1.7-1.7
	c-0.5,0-0.9,0.2-1.2,0.5l-0.9-1C12.8,7.6,13.5,7.3,14.3,7.3z"/>
</svg>
