<?xml version="1.0" encoding="utf-8"?>
<!-- Generator: Adobe Illustrator 20.0.0, SVG Export Plug-In . SVG Version: 6.00 Build 0)  -->
<svg version="1.1" id="Camada_1" xmlns="http://www.w3.org/2000/svg" xmlns:xlink="http://www.w3.org/1999/xlink" x="0px" y="0px"
	 viewBox="0 0 60 60" style="enable-background:new 0 0 60 60;" xml:space="preserve">
<style type="text/css">
	.st0{fill:#333333;}
</style>
<g id="MXAQa8.tif">
	<g>
		<path class="st0" d="M60,54.7c-0.7,1.8-1.6,3.5-3.4,4.4c-1.1,0.5-2.4,0.9-3.6,0.9c-11,0.1-22.1,0-33.1,0c-3.1,0-6.2-2.8-6.3-5.9
			c-0.1-6.8-0.1-13.6,0-20.3c0-3.1,3.2-5.9,6.4-5.9c8.4-0.1,16.7-0.1,25.1-0.1c2.5,0,5,0.1,7.5,0c3.1-0.2,6.2,2,7.1,5
			c0.1,0.2,0.2,0.4,0.3,0.6C60,40.4,60,47.6,60,54.7z M17.3,43.9c0,3.4-0.1,6.7,0.1,10.1c0,0.6,0.7,1.5,1.3,1.8
			c0.7,0.4,1.7,0.5,2.6,0.5c10.5,0,21.1,0,31.6,0c2,0,3.3-1.2,3.3-3.3c0-2.1,0-4.2,0-6.2c0-1,0-1.9,0-2.9
			C43.2,43.9,30.3,43.9,17.3,43.9z M56.2,36.9c0-1,0-1.8,0-2.6c-0.1-1.7-1.4-2.8-3.6-2.8c-10.8-0.1-21.5-0.1-32.3-0.1
			c-0.4,0-0.9,0.1-1.2,0.3c-1.8,0.9-2.5,3-1.7,5.2C30.3,36.9,43.2,36.9,56.2,36.9z"/>
		<path class="st0" d="M8.9,39c-2.1-0.9-3.5-2.2-4-4.2c-1.6-6.4-3.2-12.7-4.7-19.2C-0.6,12.3,1.7,8.8,5.1,8
			c10.6-2.6,21.2-5.2,31.8-7.8c3.9-0.9,7.5,1.2,8.5,5.1c1.5,5.6,2.8,11.2,4.2,16.9c0.1,0.2,0.1,0.5,0.1,0.9c-0.6,0-1.1,0.1-1.6,0.1
			c-9.3,0-18.5,0-27.8,0.1c-5.2,0-9.5,3.4-10.9,8.3C8.9,33,9,34.6,8.9,36.2C8.8,37,8.9,37.9,8.9,39z M33.3,11.9
			c0.7,2.7,1.3,5.2,1.9,7.8c2.7-0.7,5.2-1.3,7.9-1.9c-0.7-2.7-1.3-5.2-2-7.8C38.4,10.7,35.9,11.3,33.3,11.9z"/>
	</g>
</g>
</svg>
