<?xml version="1.0" encoding="utf-8"?>
<!-- Generator: Adobe Illustrator 20.0.0, SVG Export Plug-In . SVG Version: 6.00 Build 0)  -->
<svg version="1.1" id="Camada_1" xmlns="http://www.w3.org/2000/svg" xmlns:xlink="http://www.w3.org/1999/xlink" x="0px" y="0px"
	 viewBox="0 0 20 20" style="enable-background:new 0 0 20 20;" xml:space="preserve">
<style type="text/css">
	.st0{fill:#899EAA;}
</style>
<g id="Bloco_de_notas">
	<path class="st0" d="M19.4,3.7l-3.1-3.1c-0.8-0.8-2-0.8-2.7,0c0,0,0,0,0,0l0,0L2.2,11.9L2,12.1L0,20l7.9-2l0.7-0.7l0,0L19.5,6.4h0
		c0,0,0,0,0,0C20.2,5.7,20.2,4.5,19.4,3.7z M2.8,12.9l4.3,4.3l-4,1l-1.3-1.3L2.8,12.9z M7.9,14.6l-2.4-2.4L13.6,4L16,6.4L7.9,14.6z"
		/>
</g>
</svg>
