<?xml version="1.0" encoding="utf-8"?>
<!-- Generator: Adobe Illustrator 20.0.0, SVG Export Plug-In . SVG Version: 6.00 Build 0)  -->
<svg version="1.1" id="Camada_1" xmlns="http://www.w3.org/2000/svg" xmlns:xlink="http://www.w3.org/1999/xlink" x="0px" y="0px"
	 viewBox="0 0 62 20" style="enable-background:new 0 0 62 20;" xml:space="preserve">
<style type="text/css">
	.st0{fill:#899EAA;}
	.st1{fill:#FF0000;}
</style>
<path class="st0" d="M27.8,16.7c-0.4,1.1-1,2.2-2,2.7c-0.7,0.3-1.4,0.6-2.2,0.6C17,20,10.4,20,3.8,20C2,20,0.1,18.2,0,16.3
	C0,12.1,0,7.9,0,3.7C0,1.8,2,0.1,3.9,0.1c5-0.1,10-0.1,15-0.1c1.5,0,3,0.1,4.5,0c1.9-0.1,3.7,1.2,4.2,3.1c0.1,0.1,0.1,0.2,0.2,0.4
	C27.8,7.8,27.8,12.3,27.8,16.7z M2.3,10c0,2.1-0.1,4.2,0.1,6.3c0,0.4,0.4,0.9,0.8,1.1c0.4,0.2,1,0.3,1.6,0.3c6.3,0,12.6,0,18.9,0
	c1.2,0,2-0.7,2-2s0-2.6,0-3.8c0-0.6,0-1.2,0-1.8C17.7,10,10,10,2.3,10z M25.5,5.6c0-0.6,0-1.1,0-1.6c-0.1-1.1-0.8-1.7-2.2-1.7
	C16.9,2.2,10.5,2.2,4,2.2c-0.2,0-0.5,0.1-0.7,0.2C2.3,3,1.8,4.3,2.3,5.6C10,5.6,17.7,5.6,25.5,5.6z"/>
<path class="st0" d="M21.4,14.1h-6v-3.2h6V14.1z M15.8,13.6h5.1v-2.3h-5.1V13.6z"/>
<polygon class="st1" points="21.2,11.3 21.1,10.9 41.3,4.7 41.5,5.2 "/>
<rect x="31" y="4.3" transform="matrix(5.892857e-02 -0.9983 0.9983 5.892857e-02 15.0279 44.8035)" class="st1" width="0.5" height="20.3"/>
<path class="st0" d="M62,15.3H41.1V4.7H62V15.3z M41.6,14.8h19.9V5.2H41.6V14.8z"/>
<g>
	<path class="st0" d="M47.3,13.7l-0.9-1.6c-0.4-0.6-0.6-1-0.8-1.5h0c-0.2,0.4-0.4,0.8-0.8,1.5l-0.9,1.6h-1.1L45,10l-2.1-3.6H44
		l1,1.7c0.3,0.5,0.5,0.9,0.7,1.2h0C45.8,8.9,46,8.5,46.3,8l1-1.7h1.1l-2.2,3.6l2.3,3.8H47.3z"/>
	<path class="st0" d="M53.3,13.7l-0.9-1.6c-0.4-0.6-0.6-1-0.8-1.5h0c-0.2,0.4-0.4,0.8-0.8,1.5l-0.9,1.6h-1.1L51,10l-2.1-3.6h1.1
		l1,1.7c0.3,0.5,0.5,0.9,0.7,1.2h0C51.8,8.9,52,8.5,52.3,8l1-1.7h1.1l-2.2,3.6l2.3,3.8H53.3z"/>
	<path class="st0" d="M59.3,13.7l-0.9-1.6c-0.4-0.6-0.6-1-0.8-1.5h0c-0.2,0.4-0.4,0.8-0.8,1.5l-0.9,1.6h-1.1L57,10l-2.1-3.6h1.1
		l1,1.7c0.3,0.5,0.5,0.9,0.7,1.2h0C57.8,8.9,58,8.5,58.2,8l1-1.7h1.1l-2.2,3.6l2.3,3.8H59.3z"/>
</g>
</svg>
