<?xml version="1.0" encoding="utf-8"?>
<!-- Generator: Adobe Illustrator 19.2.1, SVG Export Plug-In . SVG Version: 6.00 Build 0)  -->
<svg version="1.1" id="Camada_1" xmlns="http://www.w3.org/2000/svg" xmlns:xlink="http://www.w3.org/1999/xlink" x="0px" y="0px"
	 viewBox="0 0 33.3 20" style="enable-background:new 0 0 33.3 20;" xml:space="preserve">
<style type="text/css">
	.st0{fill:#FA3232;}
	.st1{fill:#FAC71E;}
	.st2{fill:#FFFFFF;}
</style>
<path class="st0" d="M9.9,20c13.2,0,13.2-20,0-20C-3.3,0-3.3,20,9.9,20z"/>
<path class="st1" d="M13.3,10.3l0,0.5h6.5c0,0.2,0,0.4-0.1,0.7H18l-0.1,0.5h1.7c0,0.2-0.1,0.4-0.1,0.7h-5.8l0.2,0.5h5.4
	c-0.1,0.2-0.1,0.4-0.2,0.7h-5l0.3,0.5h4.5c-0.1,0.2-0.2,0.4-0.3,0.7h-3.8l0.3,0.5h3.1c-0.1,0.2-0.3,0.4-0.5,0.7h-2.1l0.5,0.5h1.2
	c-0.2,0.2-0.4,0.5-0.7,0.7c1.6,1.5,3.9,2.4,6.7,2.4c13.3,0,13.3-20,0-20c-2.9,0-5.1,0.9-6.7,2.4C17,2.7,17.3,3,17.5,3.3h-1.6
	l-0.5,0.5h2.5c0.2,0.2,0.3,0.4,0.4,0.7H15L14.7,5h4c0.1,0.2,0.2,0.4,0.3,0.7h-4.7l-0.2,0.5h5.1c0.1,0.2,0.2,0.4,0.2,0.7h-5.6
	l-0.2,0.5h5.9c0,0.2,0.1,0.4,0.1,0.7h-6.2l-0.1,0.5h6.3c0.1,0.6,0.1,1.1,0.1,1.7C19.8,10.3,13.3,10.3,13.3,10.3z"/>
<path class="st2" d="M15.2,10.8v0.1c0,0,0,0,0,0h1.7c0,0,0.1,0,0.1,0c0-0.1,0-0.2,0-0.3c0-0.2,0.1-0.4,0.1-0.6c0-0.4-0.1-0.7-0.4-1
	c-0.6-0.4-1.6-0.3-2.1,0.1c-0.6,0.4-0.8,1.3-0.7,2c0.1,0.4,0.2,0.7,0.5,1c0.3,0.2,0.6,0.3,1,0.4c0.3,0,0.8,0.1,1.1,0
	c0.1,0,0.1,0,0.2-0.1c0.1,0,0.1,0,0.1-0.2l0.1-0.7l0,0c-0.5,0.3-0.9,0.3-1.5,0.2c-0.2,0-0.4-0.2-0.6-0.4c0-0.1-0.1-0.3-0.1-0.3
	c0,0,0,0,0.1,0h0.3v0C15.2,10.9,15.2,10.8,15.2,10.8z M15,10.3h-0.1c0-0.3,0.2-0.5,0.4-0.6c0.2-0.1,0.5-0.1,0.7,0.1
	c0.1,0.1,0.1,0.2,0.1,0.4c0,0,0,0.2,0,0.2c0,0-0.1,0-0.1,0L15,10.3c0.1,0,0.1,0,0.1,0l0,0C15.2,10.3,15.1,10.3,15,10.3L15,10.3
	L15,10.3L15,10.3C15.1,10.3,15,10.3,15,10.3z M8.8,11.8l0.3-1.3c0.1-0.3,0.2-0.7,0-1c-0.4-0.7-1.3-0.7-2-0.6C7,8.9,6.6,8.9,6.5,9
	L6.3,9.8c0.3-0.2,0.7-0.2,1-0.2c0.3,0,0.8,0,0.8,0.4c0,0,0,0.2,0,0.2c-0.1,0-0.2,0-0.2,0c-0.2,0-0.3,0-0.5,0c-0.3,0-0.7,0.1-1,0.2
	c-0.6,0.3-1,1.2-0.5,1.8c0.5,0.5,1.5,0.4,1.9-0.1c0,0.1,0,0.3,0,0.4h0.8C8.7,12.5,8.8,11.8,8.8,11.8z M8,10.9c0,0.3-0.1,0.6-0.4,0.8
	c-0.2,0.1-0.7,0.2-0.8-0.1C6.8,11.2,7,11,7.3,10.9C7.4,10.9,8,10.7,8,10.9z M26,12.5h0.9c0,0,0,0,0-0.1l0.3-1.5
	c0-0.3,0.1-0.6,0.3-0.8c0.1-0.1,0.3-0.2,0.4-0.3c0,0,0.5-0.1,0.5-0.1l0.1-0.9c-0.5,0-0.8,0.3-1.1,0.6l0.1-0.6c-0.1,0-0.9,0-1,0
	L26.4,10C26.4,10,26,12.5,26,12.5z M25.7,11.8l0.3-1.3c0.1-0.3,0.2-0.7,0-1c-0.4-0.7-1.3-0.7-2-0.6c-0.1,0-0.6,0-0.6,0.2l-0.2,0.8
	c0.3-0.2,0.7-0.2,1-0.2c0.3,0,0.8,0,0.8,0.4c0,0,0,0.2,0,0.2c-0.1,0-0.2,0-0.2,0c-0.2,0-0.3,0-0.5,0c-0.3,0-0.7,0.1-1,0.2
	c-0.6,0.3-0.9,1.2-0.5,1.8c0.5,0.5,1.5,0.4,1.9-0.1c0,0.1,0,0.3,0,0.4h0.8C25.6,12.5,25.7,11.8,25.7,11.8z M24.9,10.9
	c0,0.3-0.1,0.6-0.4,0.8c-0.2,0.1-0.7,0.2-0.8-0.1c-0.1-0.3,0.2-0.5,0.5-0.6C24.3,10.9,24.8,10.7,24.9,10.9z M1.8,12.5l0.4-2.2
	l0.2-1.1c0,0,0,0,0,0c0,0,0,0.1,0,0.1l0,0.3l0,0.6c0,0.8,0.1,1.5,0.1,2.3c0,0.1,0,0.1,0.1,0.1h0.4c0,0,0.5,0,0.5,0L4,11.6L4.7,10
	c0-0.1,0.3-0.8,0.4-0.8l-0.6,3.3h0.7c0.1,0,0.2,0,0.2-0.1L5.4,12l0.3-1.5l0.4-2.4H4.9c0,0-0.4,0-0.4,0L4.3,8.4l-1,2.3L3.2,8.5l0-0.4
	c0-0.1-0.2,0-0.2,0H1.7c-0.1,0-0.1,0-0.1,0.1L1.5,8.6l-0.3,1.5l-0.4,2.4C0.8,12.5,1.8,12.5,1.8,12.5z M31.2,12.5L32,8.1h-0.9
	c0,0,0,0.1,0,0.1l-0.2,1.2c-0.3-0.7-1.4-0.6-1.9-0.2c-0.6,0.5-0.9,1.2-0.8,2c0,0.5,0.3,1.1,0.8,1.3c0.5,0.2,1.1,0,1.4-0.4
	c0,0.1,0,0.3-0.1,0.4C30.3,12.5,31.2,12.5,31.2,12.5z M29.7,11.7c-0.4-0.1-0.5-0.5-0.5-0.9c0-0.4,0.2-0.7,0.5-1
	c0.3-0.2,0.7-0.1,0.8,0.2c0.1,0.3,0.1,0.7-0.1,1.1C30.3,11.5,30.1,11.7,29.7,11.7z M22.9,9.1L23,8.3c0-0.1,0.1-0.2,0-0.2
	c-0.1,0-0.2-0.1-0.3-0.1c-0.4-0.1-0.8-0.1-1.2-0.1C20.8,8,20.2,8.4,19.8,9c-0.3,0.6-0.6,1.5-0.4,2.1c0.2,0.8,0.8,1.3,1.7,1.3
	c0.3,0,0.7,0,1.1-0.1c0.2-0.1,0.2-0.2,0.2-0.4l0.1-0.6c-0.5,0.4-1.4,0.4-1.8-0.1c-0.2-0.3-0.3-0.7-0.2-1c0.1-0.3,0.2-0.8,0.4-1
	C21.5,8.7,22.3,8.7,22.9,9.1z M12.7,8.1l-0.4,2.3l-0.2,1.3c0,0.2-0.1,0.6,0.2,0.7c0.3,0.2,0.7,0.2,1.1,0.1c0.1,0,0.3,0,0.3-0.1
	l0.1-0.6c-0.2,0.1-0.8,0.2-0.7-0.2l0.2-1.2l0.1-0.6c0,0,0-0.1,0-0.1l0.3,0l0.3,0c0,0,0-0.2,0-0.2l0.1-0.6h-0.6l0.1-0.8
	C13.6,8.1,12.7,8.1,12.7,8.1z M17,12.5h0.7c0.1,0,0.3,0.1,0.3,0l0.2-1.5c0-0.3,0.1-0.6,0.2-0.9c0.2-0.2,0.6-0.4,0.8-0.3
	c0.1,0,0.1-0.1,0.1-0.1c0-0.1,0-0.2,0.1-0.3c0.1-0.2,0.1-0.3,0.2-0.5c-0.5-0.1-0.9,0.2-1.2,0.6l0.1-0.6c-0.1,0-1-0.1-1,0L17.4,10
	C17.4,10,17,12.5,17,12.5z M11.9,9.7l0.2-0.8c-0.8-0.1-2.3-0.3-2.6,0.8c-0.1,0.4-0.1,0.8,0.2,1c0.3,0.3,0.7,0.2,1,0.5
	c0.1,0.1,0.1,0.3,0,0.5c-0.1,0.1-0.3,0.1-0.5,0.1c-0.3,0-0.7-0.1-1-0.2l-0.1,0.5c0,0-0.1,0.2,0,0.2c0,0,0.2,0.1,0.2,0.1
	c0.3,0.1,0.6,0.1,0.9,0.1c0.6,0,1.2,0,1.6-0.6c0.2-0.3,0.2-0.8,0.1-1.1c-0.2-0.4-0.6-0.4-0.9-0.6c-0.1-0.1-0.3-0.2-0.3-0.4
	c0-0.2,0.2-0.3,0.3-0.3c0.2,0,0.4,0,0.5,0C11.6,9.6,11.7,9.7,11.9,9.7z"/>
</svg>
