<?xml version="1.0" encoding="utf-8"?>
<!-- Generator: Adobe Illustrator 19.2.1, SVG Export Plug-In . SVG Version: 6.00 Build 0)  -->
<svg version="1.1" id="Camada_1" xmlns="http://www.w3.org/2000/svg" xmlns:xlink="http://www.w3.org/1999/xlink" x="0px" y="0px"
	 viewBox="0 0 33.4 10" style="enable-background:new 0 0 33.4 10;" xml:space="preserve">
<style type="text/css">
	.st0{fill:#0064B4;}
	.st1{fill:#FAAA1E;}
</style>
<path class="st0" d="M9.5,0.2L6.8,6.8L6.6,5.4c-0.5-1.5-2.1-3.2-3.7-4l2.4,8.4h2.8l4.2-9.6C12.3,0.2,9.5,0.2,9.5,0.2z M31.1,0.2
	h-2.1c-0.7,0-1.1,0.2-1.4,0.8l-4,8.8h2.8c0,0,0.5-1.2,0.6-1.5h3.4c0.1,0.3,0.3,1.5,0.3,1.5h2.5C33.3,9.8,31.1,0.2,31.1,0.2z
	 M27.8,6.4l1.1-2.7c0,0,0.2-0.5,0.3-0.9l0.2,0.9L30,6.4H27.8z M24.2,0.4C23.7,0.3,22.9,0,21.8,0c-2.6,0-4.6,1.3-4.6,3.2
	c0,1.4,1.3,2.2,2.4,2.6C20.7,6.2,21,6.6,21,7c0,0.7-0.9,0.9-1.6,0.9c-1.1,0-1.7-0.1-2.5-0.5l-0.4-0.1l-0.4,2.2
	c0.7,0.3,1.8,0.5,3,0.5c2.8,0,4.7-1.3,4.7-3.3c0-1.1-0.7-1.9-2.3-2.6C20.6,3.6,20,3.4,20,2.9c0-0.4,0.5-0.9,1.5-0.9
	c0.9,0,1.5,0.2,2.1,0.4l0.3,0.1L24.2,0.4z M11.7,9.8h2.7l1.7-9.6h-2.7L11.7,9.8z"/>
<path class="st1" d="M4.4,0.2H0.1L0,0.4c3.4,0.8,5.6,2.7,6.6,5L5.6,1C5.4,0.4,5,0.2,4.4,0.2z"/>
</svg>
