<?xml version="1.0" encoding="utf-8"?>
<!-- Generator: Adobe Illustrator 19.2.1, SVG Export Plug-In . SVG Version: 6.00 Build 0)  -->
<svg version="1.1" id="Camada_1" xmlns="http://www.w3.org/2000/svg" xmlns:xlink="http://www.w3.org/1999/xlink" x="0px" y="0px"
	 viewBox="0 0 85.2 21.4" style="enable-background:new 0 0 85.2 21.4;" xml:space="preserve">
<style type="text/css">
	.st0{fill:#0071BC;}
	.st1{fill:#6B151B;}
	.st2{fill:#BA2F2F;}
</style>
<g>
	<path class="st0" d="M29.1,8.8L32-0.1h1.4l2.9,8.9h-1.1l-0.9-2.6h-3.3l-0.9,2.6C30.2,8.8,29.1,8.8,29.1,8.8z M31.4,5.2H34l-1.3-3.9
		L31.4,5.2z"/>
	<path class="st0" d="M37.2,8.8V0h1.4l2.8,7l2.8-7h1.4v8.9h-1.1V2.1l-2.6,6.6H41l-2.6-6.6v6.6H37.2z"/>
	<path class="st0" d="M47,8.8V0h1.1v8.9L47,8.8L47,8.8z"/>
	<path class="st0" d="M49.2,4.4c0-1.4,0.3-2.5,1-3.3c0.7-0.8,1.6-1.2,2.7-1.2c0.8,0,1.6,0.3,2.2,0.8c0.7,0.5,1,1.2,1.2,2l-1.1,0.1
		c-0.1-0.5-0.3-1-0.8-1.4C54,1.1,53.5,0.8,53,0.8c-0.8,0-1.4,0.3-1.9,1c-0.5,0.7-0.7,1.5-0.7,2.6c0,1.1,0.3,1.9,0.7,2.6
		C51.5,7.7,52.1,8,53,8c0.7,0,1.4-0.3,1.8-0.7c0.5-0.5,0.7-1.2,0.7-2H53V4h3.5v4.5h-0.8l-0.1-0.9c-0.3,0.4-0.7,0.7-1.2,0.9
		c-0.5,0.2-0.9,0.3-1.5,0.3c-1.2,0-2-0.4-2.7-1.2C49.5,6.8,49.2,5.7,49.2,4.4z"/>
	<path class="st0" d="M57,8.8l3-4.4L57,0h1.4l2.3,3.5L63,0h1.4l-3,4.4l3,4.4H63l-2.3-3.4l-2.3,3.4H57z"/>
	<path class="st0" d="M64.7,5.8h1.1c0,0.7,0.2,1.2,0.6,1.6C66.8,7.8,67.3,8,68,8s1.2-0.1,1.6-0.5c0.4-0.3,0.6-0.7,0.6-1.2
		c0-0.5-0.3-0.8-0.7-1.1c-0.3-0.2-0.9-0.3-1.5-0.5c-0.9-0.1-1.6-0.5-2.2-0.9c-0.6-0.5-0.9-1.1-0.9-1.8c0-0.7,0.3-1.3,0.8-1.8
		C66.2,0,67-0.3,67.9-0.3s1.7,0.3,2.2,0.7C70.7,1,71,1.7,71,2.5h-1.1c-0.1-0.5-0.3-1-0.7-1.4c-0.3-0.3-0.8-0.5-1.3-0.5
		c-0.6,0-1.1,0.1-1.4,0.4c-0.3,0.3-0.5,0.6-0.5,1c0,0.5,0.2,0.8,0.6,1.2c0.3,0.3,0.8,0.5,1.4,0.5c0.9,0.1,1.7,0.4,2.2,0.7
		c0.7,0.4,1.1,1,1.1,1.7c0,0.8-0.3,1.5-0.9,2c-0.6,0.5-1.4,0.7-2.4,0.7S66.1,8.6,65.5,8C65,7.6,64.7,6.8,64.7,5.8z"/>
	<path class="st0" d="M29.8,21.4v-8.9h2.8c1.2,0,2.2,0.4,2.9,1.2c0.7,0.8,1.1,1.9,1.1,3.2c0,1.4-0.3,2.4-1.1,3.2
		c-0.7,0.8-1.7,1.2-2.9,1.2L29.8,21.4L29.8,21.4z M30.8,20.4h1.6c0.9,0,1.6-0.3,2.1-0.9c0.5-0.6,0.8-1.5,0.8-2.5s-0.3-1.9-0.8-2.5
		c-0.5-0.6-1.2-0.9-2.1-0.9h-1.6V20.4z"/>
	<path class="st0" d="M37,21.4l2.9-8.9h1.4l2.9,8.9h-1.1l-0.9-2.6H39l-0.9,2.6H37z M39.3,17.7h2.6l-1.3-3.9L39.3,17.7z"/>
	<path class="st0" d="M48.3,18.4h1.1c0,0.7,0.2,1.2,0.6,1.6c0.4,0.4,0.9,0.6,1.6,0.6c0.7,0,1.2-0.1,1.6-0.5c0.4-0.3,0.6-0.7,0.6-1.2
		c0-0.5-0.3-0.8-0.7-1.1c-0.3-0.2-0.9-0.3-1.5-0.5c-0.9-0.1-1.6-0.5-2.2-0.9c-0.6-0.5-0.9-1.1-0.9-1.8c0-0.7,0.3-1.3,0.8-1.8
		c0.5-0.4,1.3-0.7,2.2-0.7s1.7,0.3,2.2,0.7c0.5,0.5,0.8,1.2,0.8,2h-1.1c-0.1-0.5-0.3-1-0.7-1.4c-0.3-0.3-0.7-0.4-1.2-0.4
		c-0.6,0-1.1,0.1-1.4,0.4c-0.3,0.3-0.5,0.6-0.5,1c0,0.5,0.2,0.8,0.6,1.2c0.3,0.3,0.8,0.5,1.4,0.5c0.9,0.1,1.7,0.4,2.2,0.7
		c0.7,0.4,1.1,1,1.1,1.7c0,0.8-0.3,1.5-0.9,2s-1.4,0.7-2.4,0.7c-1,0-1.8-0.3-2.4-0.9C48.5,20.1,48.3,19.4,48.3,18.4z"/>
	<path class="st0" d="M55.3,21.4l2.9-8.9h1.4l2.9,8.9h-1.1l-0.9-2.6h-3.2l-0.9,2.6H55.3z M57.6,17.7h2.6l-1.3-3.9L57.6,17.7z"/>
	<path class="st0" d="M63.2,18.7v-6.2h1.1v6.2c0,0.5,0.2,0.9,0.7,1.3c0.4,0.3,0.9,0.5,1.6,0.5c0.6,0,1.1-0.1,1.6-0.5
		c0.5-0.3,0.7-0.7,0.7-1.3v-6.2h1.1v6.2c0,0.8-0.3,1.5-1,2c-0.6,0.5-1.4,0.7-2.3,0.7s-1.6-0.3-2.3-0.7
		C63.5,20.2,63.2,19.5,63.2,18.7z M67.1,9.8h1.1L67,12h-1.1L67.1,9.8z"/>
	<path class="st0" d="M71.2,21.4v-8.9H74c1.2,0,2.2,0.4,2.9,1.2c0.7,0.8,1.1,1.9,1.1,3.2c0,1.4-0.3,2.4-1.1,3.2
		c-0.7,0.8-1.7,1.2-2.9,1.2L71.2,21.4L71.2,21.4z M72.3,20.4H74c0.9,0,1.6-0.3,2.1-0.9c0.5-0.6,0.8-1.5,0.8-2.5s-0.3-1.9-0.8-2.5
		c-0.5-0.6-1.2-0.9-2.1-0.9h-1.6V20.4z"/>
	<path class="st0" d="M79.1,21.4v-8.9h6.1v1h-4.9v2.7h4.4v1h-4.4v3h4.9v1h-6.1V21.4z"/>
</g>
<g>
	<path class="st1" d="M13.8,15.8L7.4,9.6C7.4,9.6,5.1,7.5,5.1,5c0-3,1.8-4.8,4.9-4.8c1.8,0,3.5,1.4,4.3,2.2c0.8-0.8,2.5-2.2,4.3-2.2
		c3.1,0,4.9,1.8,4.9,4.8c0,2.5-2.2,4.6-2.4,4.6l-6.4,6.2c-0.1,0.1-0.3,0.2-0.5,0.2C14.1,16,13.9,15.9,13.8,15.8z"/>
</g>
<g>
	<path class="st2" d="M26.8,21.5H0V1.3h1.7v18.4h25.2V21.5z M25.2,9.1c0,0.3-0.5,0.5-0.7,0.3l-1.6-1.6l-8.3,8.3
		c-0.2,0.2-0.4,0.2-0.6,0l-3.1-3.1l-5.4,5.4L3,16l7.7-7.7c0.2-0.2,0.4-0.2,0.6,0l3.1,3.1l6.1-6.1l-1.6-1.6C18.6,3.4,18.8,3,19.1,3
		h5.7c0.2,0,0.4,0.2,0.4,0.4L25.2,9.1L25.2,9.1z"/>
</g>
</svg>
