<?xml version="1.0" encoding="utf-8"?>
<!-- Generator: Adobe Illustrator 19.2.1, SVG Export Plug-In . SVG Version: 6.00 Build 0)  -->
<svg version="1.1" id="Camada_1" xmlns="http://www.w3.org/2000/svg" xmlns:xlink="http://www.w3.org/1999/xlink" x="0px" y="0px"
	 viewBox="0 0 43 40" style="enable-background:new 0 0 43 40;" xml:space="preserve">
<style type="text/css">
	.st0{fill:url(#SVGID_1_);}
	.st1{opacity:0.51;}
	.st2{fill:url(#SVGID_2_);}
	.st3{opacity:0.7;}
	.st4{fill:url(#SVGID_3_);}
	.st5{fill:none;stroke:#BF9501;stroke-miterlimit:1;}
	.st6{opacity:0.58;}
	.st7{fill:#7B6000;}
	.st8{opacity:0.49;}
	.st9{fill:#FFFFFF;}
</style>
<g>
	<g>
		<g>
			<linearGradient id="SVGID_1_" gradientUnits="userSpaceOnUse" x1="21.5" y1="39.6793" x2="21.5" y2="0.3769">
				<stop  offset="0" style="stop-color:#B58C00"/>
				<stop  offset="0.618" style="stop-color:#937100"/>
				<stop  offset="0.6292" style="stop-color:#A78300"/>
				<stop  offset="0.9831" style="stop-color:#9C7A00"/>
			</linearGradient>
			<path class="st0" d="M40.5,6.5h-8v-2c0-2.3-1.2-4-3.4-4H14.3c-2.3,0-4.8,1.7-4.8,4v2H2.9C1.5,6.5,0.5,8,0.5,9.4v3.3
				c0,4.9,5.8,10.2,13.8,10.6c1,1.3,1.9,2.1,2.4,2.4c1.4,1.2,1.7,2.5,1.7,4.1s-1.2,3.3-3.6,3.3c-2.5,0-5.3,1.6-5.3,4.1v1.6
				c0,0.5,1.1,0.6,1.6,0.6h21.3c0.5,0,0.2-0.2,0.2-0.6v-1.6c0-2.5-2.1-4.1-4.6-4.1c-2.5,0-3.1-1.6-3.1-3.3s0.4-2.9,1.8-4.1
				c0.5-0.4,1.2-1.1,2.2-2.4c8-0.4,13.7-5.8,13.7-10.6V9.4C42.5,8,41.9,6.5,40.5,6.5z M2.5,12.7V9.5h7.7c0,4,0.2,7.5,1.3,9.8
				C6.5,18.3,2.5,15.2,2.5,12.7z M39.5,12.7c0,2.5-3.3,5.6-8.3,6.7c1.1-2.4,2-5.8,2-9.8h6.3V12.7z"/>
			<g class="st1">
				<linearGradient id="SVGID_2_" gradientUnits="userSpaceOnUse" x1="21.5" y1="39.5" x2="21.5" y2="0.5">
					<stop  offset="0" style="stop-color:#8C6D01"/>
					<stop  offset="0.5" style="stop-color:#695100"/>
					<stop  offset="0.5378" style="stop-color:#6F5600"/>
					<stop  offset="0.6652" style="stop-color:#7F6301"/>
					<stop  offset="0.8086" style="stop-color:#896B01"/>
					<stop  offset="1" style="stop-color:#8C6D01"/>
				</linearGradient>
				<path class="st2" d="M40.5,6.5h-8v-2c0-2.3-1.2-4-3.4-4H14.3c-2.3,0-4.8,1.7-4.8,4v2H2.9C1.5,6.5,0.5,8,0.5,9.4v3.3
					c0,4.9,5.8,10.2,13.8,10.6c1,1.3,1.9,2.1,2.4,2.4c1.4,1.2,1.7,2.5,1.7,4.1s-1.2,3.3-3.6,3.3c-2.5,0-5.3,1.6-5.3,4.1v1.6
					c0,0.5,1.1,0.6,1.6,0.6h21.3c0.5,0,0.2-0.2,0.2-0.6v-1.6c0-2.5-2.1-4.1-4.6-4.1c-2.5,0-3.1-1.6-3.1-3.3s0.4-2.9,1.8-4.1
					c0.5-0.4,1.2-1.1,2.2-2.4c8-0.4,13.7-5.8,13.7-10.6V9.4C42.5,8,41.9,6.5,40.5,6.5z M2.5,12.7V9.5h7.7c0,4,0.2,7.5,1.3,9.8
					C6.5,18.3,2.5,15.2,2.5,12.7z M39.5,12.7c0,2.5-3.3,5.6-8.3,6.7c1.1-2.4,2-5.8,2-9.8h6.3V12.7z"/>
			</g>
			<g class="st3">
				<linearGradient id="SVGID_3_" gradientUnits="userSpaceOnUse" x1="21.5" y1="0.5" x2="21.5" y2="39.5">
					<stop  offset="0" style="stop-color:#FFFFFF;stop-opacity:0.77"/>
					<stop  offset="0.2033" style="stop-color:#FFFFFF;stop-opacity:0.65"/>
					<stop  offset="0.3448" style="stop-color:#FFFFFF;stop-opacity:0.65"/>
					<stop  offset="0.3462" style="stop-color:#FFFFFF;stop-opacity:0.65"/>
					<stop  offset="0.511" style="stop-color:#FFFFFF;stop-opacity:0"/>
					<stop  offset="0.513" style="stop-color:#FCFBFA;stop-opacity:6.637669e-04"/>
					<stop  offset="0.5329" style="stop-color:#DDD9CC;stop-opacity:7.156763e-03"/>
					<stop  offset="0.5547" style="stop-color:#C0BAA2;stop-opacity:1.430957e-02"/>
					<stop  offset="0.5787" style="stop-color:#A79E7C;stop-opacity:2.215364e-02"/>
					<stop  offset="0.6048" style="stop-color:#91855C;stop-opacity:3.068314e-02"/>
					<stop  offset="0.6336" style="stop-color:#7F7140;stop-opacity:4.011143e-02"/>
					<stop  offset="0.6662" style="stop-color:#70612A;stop-opacity:5.076889e-02"/>
					<stop  offset="0.7042" style="stop-color:#655419;stop-opacity:6.320400e-02"/>
					<stop  offset="0.7511" style="stop-color:#5D4B0E;stop-opacity:7.857391e-02"/>
					<stop  offset="0.817" style="stop-color:#584607;stop-opacity:0.1001"/>
					<stop  offset="1" style="stop-color:#574505;stop-opacity:0.16"/>
				</linearGradient>
				<path class="st4" d="M40.5,6.5h-8v-2c0-2.3-1.2-4-3.4-4H14.3c-2.3,0-4.8,1.7-4.8,4v2H2.9C1.5,6.5,0.5,8,0.5,9.4v3.3
					c0,4.9,5.8,10.2,13.8,10.6c1,1.3,1.9,2.1,2.4,2.4c1.4,1.2,1.7,2.5,1.7,4.1s-1.2,3.3-3.6,3.3c-2.5,0-5.3,1.6-5.3,4.1v1.6
					c0,0.5,1.1,0.6,1.6,0.6h21.3c0.5,0,0.2-0.2,0.2-0.6v-1.6c0-2.5-2.1-4.1-4.6-4.1c-2.5,0-3.1-1.6-3.1-3.3s0.4-2.9,1.8-4.1
					c0.5-0.4,1.2-1.1,2.2-2.4c8-0.4,13.7-5.8,13.7-10.6V9.4C42.5,8,41.9,6.5,40.5,6.5z M2.5,12.7V9.5h7.7c0,4,0.2,7.5,1.3,9.8
					C6.5,18.3,2.5,15.2,2.5,12.7z M39.5,12.7c0,2.5-3.3,5.6-8.3,6.7c1.1-2.4,2-5.8,2-9.8h6.3V12.7z"/>
			</g>
			<path class="st5" d="M40.5,6.5h-8v-2c0-2.3-1.2-4-3.4-4H14.3c-2.3,0-4.8,1.7-4.8,4v2H2.9C1.5,6.5,0.5,8,0.5,9.4v3.3
				c0,4.9,5.8,10.2,13.8,10.6c1,1.3,1.9,2.1,2.4,2.4c1.4,1.2,1.7,2.5,1.7,4.1s-1.2,3.3-3.6,3.3c-2.5,0-5.3,1.6-5.3,4.1v1.6
				c0,0.5,1.1,0.6,1.6,0.6h21.3c0.5,0,0.2-0.2,0.2-0.6v-1.6c0-2.5-2.1-4.1-4.6-4.1c-2.5,0-3.1-1.6-3.1-3.3s0.4-2.9,1.8-4.1
				c0.5-0.4,1.2-1.1,2.2-2.4c8-0.4,13.7-5.8,13.7-10.6V9.4C42.5,8,41.9,6.5,40.5,6.5z M2.5,12.7V9.5h7.7c0,4,0.2,7.5,1.3,9.8
				C6.5,18.3,2.5,15.2,2.5,12.7z M39.5,12.7c0,2.5-3.3,5.6-8.3,6.7c1.1-2.4,2-5.8,2-9.8h6.3V12.7z"/>
		</g>
		<g class="st6">
			<path class="st7" d="M40.5,7.2C39,7.2,33.7,8,32.8,7c-0.4-0.4-0.1-4.2-0.7-5c-1.6-2.4-5.6-1.7-8.1-1.7c-3.1,0-6.4-0.4-9.4,0
				c-2.6,0.3-4,1.4-4.4,4.1c-0.1,0.7,0.4,2.2-0.1,2.7c-0.5,0.5-3.8,0-4.5,0c-2.2,0-4.5-0.5-5.2,2.2c-0.2,0.9-0.1,2.5,0,3.4
				c0.4,4.5,4,7.7,8,9.4c1.4,0.6,2.9,0.6,4.3,1.1c1.7,0.6,0.9,0,2.5,1.3c2.1,1.6,5.1,5.6,2.1,7.9c-2.6,2-6.6,0.2-7.1,4.8
				c0,0.4-0.2,1.8,0.2,2.3c0.9,1,5,0.2,6.1,0.2c3.7,0,7.4,0,11.1,0c2.8,0,5.7,1,5.2-2.6c-0.7-5.3-6.5-2.4-7.8-6.4
				c-0.7-2.3,0.5-3.5,1.7-5c1.3-1.6,2.1-2,3.9-2.6c3.2-1.1,6.1-1.5,8.8-3.9C41.3,17.4,45.7,8.3,40.5,7.2c0,0,0,0.1,0,0.1
				c2.7,0.6,2.4,3.9,2.1,6.3c-0.5,3.1-2.8,5.5-5.4,7.1c-2.9,1.8-6.8,1.6-9.2,3.6c-1.7,1.4-3.2,3.1-3.1,5.5c0.1,2.4,1.2,2.8,3.2,3.4
				c2.3,0.6,5.9,1.9,4.7,5.2c-0.5,1.5-0.5,1.1-2.1,1.2c-4.2,0.3-8.6,0-12.8,0c-2.4,0-7.2,1.2-7.7-1.6c-1.1-6,7.8-3.1,8.2-8.1
				c0.2-2.4-1.4-4.2-3.2-5.5c-2.9-2.3-7.6-2.1-10.9-4.8c-2.6-2.1-4-4.7-4-8.1c0-3,0.7-4.1,3.6-4.2c2.1-0.1,4.2,0,6.2,0
				c0,0,0-0.1,0-0.1c0-3.3,0.2-6.3,4.2-6.8c2.3-0.3,4.9,0,7.3,0c2.3,0,4.9-0.3,7.2,0c3.9,0.5,4,3.5,4,6.8c0,0,0,0.1,0,0.1
				c2.6,0,5.1,0,7.7,0C40.5,7.3,40.5,7.2,40.5,7.2z"/>
			<path class="st7" d="M3.4,12.7c0-0.4-0.2-2.1,0-2.4c0.3-0.2,2,0,2.3,0c1.1,0,2.2,0,3.3,0c1.1,0,1.2-0.1,1.2,1
				c0.1,1.7,0.2,3.4,0.6,5.1c0.2,0.7,0.7,1.7,0.7,2.5c0,0.6,0.2,0.5-0.5,0.5c-0.4,0-1.1-0.3-1.4-0.5C7.1,18,3.5,15.7,3.4,12.7
				C3.4,12.6,3.4,12.7,3.4,12.7c0.2,4,5.3,6.3,8.6,7.1c0,0,0-0.1,0-0.1c-1.3-3-1.7-6.2-1.7-9.5c0,0,0,0,0,0c-2.3,0-4.6,0-6.9,0
				c0,0,0,0.1,0,0.1C3.4,11,3.4,11.8,3.4,12.7C3.4,12.7,3.4,12.7,3.4,12.7z"/>
			<path class="st7" d="M39.7,12.6c-0.2,2.9-3.2,5.1-5.6,6.1c-0.4,0.2-2.3,1.1-2.6,0.6c-0.1-0.2,0.7-2.1,0.8-2.4
				c0.5-1.6,0.7-3.3,0.8-5c0-0.1,0-1.6,0.1-1.7c0.1-0.1,0.8,0,0.9,0c1.1,0,2.2,0,3.3,0c0.3,0,2.1-0.2,2.3,0
				C40,10.5,39.7,12.2,39.7,12.6C39.7,12.7,39.7,12.7,39.7,12.6c0-0.8,0-1.6,0-2.4c0,0,0-0.1,0-0.1c-2.2,0-4.4,0-6.6,0c0,0,0,0,0,0
				c0,3.3-0.6,6.5-1.9,9.5c0,0,0,0.1,0,0.1c3.3-0.8,8.2-3.1,8.4-7C39.7,12.7,39.7,12.6,39.7,12.6z"/>
		</g>
	</g>
	<g class="st8">
		<path class="st9" d="M11.1,39c-3-3,3.2-4.7,4.7-5.2c2-0.7,2.8-1.5,3-3.7c0.2-2.8-2-6.2-4.4-7.5c-1.3-0.7-3.7-0.5-5.2-1
			C7.5,21,5.9,20.1,4.5,19c-2.4-2-3.8-4.4-3.8-7.5c0-2.7,0.7-3.4,3.3-3.5c2.2-0.1,4.3,0,6.5,0c0,0,0-0.4,0-0.4c0-3.1,0-6,3.8-6.5
			c2.3-0.3,4.9,0,7.3,0c2.3,0,4.9-0.3,7.2,0c3.7,0.5,3.6,3.4,3.6,6.5c0,0,0,0.4,0,0.4c2.3,0,6-0.8,8,0c3.7,1.4,1.4,7.6-0.7,9.8
			c-1.9,2.1-4.5,3.5-7.2,4.2c-3.3,0.9-3.5,0.1-5.8,2.7c-1.4,1.6-2.5,3-2.3,5.3c0.3,5.1,4.5,2.4,7,5.3c2.8,3.2,0.5,3.7-2,3.7
			C23.4,39,17.2,39,11.1,39c0,0,0,0.7,0,0.7c6,0,12.1,0,18.1,0c2.8,0,3.8,0.4,3.3-2.8c-0.9-5.1-10.3-2.5-7.5-9.1
			c0.5-1.1,2.8-3.9,3.8-4.4c0.3-0.2,2.8-0.3,3.2-0.4c1.8-0.4,3.5-1.1,5.1-2.1c3.4-2.1,6.8-7.4,5.3-11.7c-0.9-2.6-3.8-1.8-6.3-1.8
			c-0.5,0-3.2,0.3-3.6,0c-0.4-0.4,0.1-2.4,0-3.1c-0.8-6-10.5-3.9-14.9-3.9c-3.2,0-6.4-0.3-7,3.7C10.4,5.5,11,6.6,10,7.2
			C7.8,8.6,3,5.6,1.1,8c-0.8,1-0.4,3.8-0.3,4.7C1,15.8,2.6,18.2,5,20.1c4.4,3.3,10.9,1.8,13.3,7.6c2.8,6.7-6.9,4-7.8,9.2
			c-0.2,1.1-0.3,2,0.5,2.8C10.9,39.6,11.2,39.1,11.1,39z"/>
		<path class="st9" d="M32.8,9.9c0,3.5-0.7,6.8-2.1,9.9c0,0.1,0,0.7,0,0.7c3.4-0.7,7.4-2.4,9-5.7c0.7-1.5,0.4-3.3,0.4-4.9
			c0,0,0-0.4,0-0.4c-2.4,0-4.8,0-7.2,0C32.8,9.5,32.8,9.9,32.8,9.9c0,0.1,0,0.2,0,0.3c0,0.4,0,0.4,0,0c0-0.3-0.1,0.1,0.2,0
			c0.3-0.1,0.7,0,1,0c1,0,2,0,3,0c0.8,0,1.7,0.1,2.6,0c0,0,0.8,0.1,0.4-0.3c0.1,0.1,0,0.8,0,1c0,2.2-0.4,3.8-2,5.4
			c-2,2-4.6,3-7.4,3.6c0,0.2,0,0.5,0,0.7c1.5-3.2,2.1-6.5,2.1-10C32.8,10.4,32.8,9.9,32.8,9.9z"/>
		<path class="st9" d="M3,13c0.3,4.4,5.9,6.8,9.6,7.5c0,0,0-0.6,0-0.7c-1.4-3.2-2-6.5-2-10c0,0,0-0.4,0-0.4c-2.5,0-5,0-7.6,0
			c0,0,0,0.4,0,0.4c0,0.9,0,1.9,0,2.8c0,0.4,0,0.4,0,0C3,12,2.8,11,3,10.4c0.2-0.8-0.2,0,0.1-0.2c0.2-0.1,0.6,0,0.8,0
			c1.8,0,3.7,0,5.5,0c0.5,0,1.2,0,1.2,0c0.2,0.2,0,1.6,0,1.9c0.1,2.9,0.7,5.8,1.9,8.4c0-0.2,0-0.5,0-0.7c-3.6-0.8-9.3-3.1-9.6-7.5
			C3,12.5,3,12.8,3,13z"/>
	</g>
</g>
<g>
	<path class="st9" d="M13.1,2h1.2v5.2h2.2v1h-3.4V2z"/>
	<path class="st9" d="M17,3.8c0-0.4,0.1-0.7,0.3-1c0.1-0.3,0.4-0.5,0.6-0.7c0.3-0.2,0.6-0.2,1.1-0.2c0.5,0,0.8,0.1,1.1,0.2
		c0.3,0.2,0.5,0.4,0.6,0.7c0.1,0.3,0.2,0.6,0.3,1c0,0.4,0.1,0.8,0.1,1.3c0,0.5,0,0.9-0.1,1.3c0,0.4-0.1,0.7-0.3,1
		c-0.1,0.3-0.4,0.5-0.6,0.6c-0.3,0.1-0.6,0.2-1.1,0.2c-0.5,0-0.8-0.1-1.1-0.2c-0.3-0.1-0.5-0.4-0.6-0.6c-0.1-0.3-0.2-0.6-0.3-1
		C17,6,17,5.6,17,5.1C17,4.7,17,4.2,17,3.8z M18.2,6.2c0,0.3,0.1,0.5,0.1,0.7c0.1,0.2,0.1,0.3,0.3,0.4c0.1,0.1,0.3,0.1,0.4,0.1
		c0.2,0,0.3,0,0.4-0.1c0.1-0.1,0.2-0.2,0.3-0.4c0.1-0.2,0.1-0.4,0.1-0.7c0-0.3,0-0.6,0-1.1c0-0.4,0-0.8,0-1.1c0-0.3-0.1-0.5-0.1-0.7
		C19.7,3.2,19.6,3,19.5,3c-0.1-0.1-0.3-0.1-0.4-0.1c-0.2,0-0.3,0-0.4,0.1c-0.1,0.1-0.2,0.2-0.3,0.4c-0.1,0.2-0.1,0.4-0.1,0.7
		s0,0.6,0,1.1C18.2,5.5,18.2,5.9,18.2,6.2z"/>
	<path class="st9" d="M25.1,6.5c0,0.7-0.2,1.1-0.5,1.4c-0.3,0.3-0.8,0.4-1.4,0.4c-0.3,0-0.6,0-0.8-0.1c-0.2-0.1-0.4-0.2-0.5-0.4
		c-0.1-0.2-0.2-0.4-0.3-0.6c0-0.2-0.1-0.4-0.1-0.7V6.3h1.1v0.2c0,0.3,0,0.6,0.1,0.7c0.1,0.2,0.2,0.2,0.4,0.2s0.4-0.1,0.4-0.2
		c0.1-0.2,0.1-0.4,0.1-0.7V2h1.2V6.5z"/>
	<path class="st9" d="M28.7,2l1.6,6.2H29l-0.3-1.3h-1.6l-0.3,1.3h-1.3L27.1,2H28.7z M28.5,5.9l-0.6-2.8h0l-0.6,2.8H28.5z"/>
	<path class="st9" d="M12.3,13.6c0-0.4,0.1-0.7,0.3-1c0.1-0.3,0.4-0.5,0.6-0.7c0.3-0.2,0.6-0.2,1.1-0.2c0.5,0,0.8,0.1,1.1,0.2
		c0.3,0.2,0.5,0.4,0.6,0.7c0.1,0.3,0.2,0.6,0.3,1c0,0.4,0.1,0.8,0.1,1.3c0,0.5,0,0.9-0.1,1.3c0,0.4-0.1,0.7-0.3,1
		c-0.1,0.3-0.4,0.5-0.6,0.6c-0.3,0.1-0.6,0.2-1.1,0.2c-0.5,0-0.8-0.1-1.1-0.2c-0.3-0.1-0.5-0.4-0.6-0.6c-0.1-0.3-0.2-0.6-0.3-1
		c0-0.4-0.1-0.8-0.1-1.3C12.2,14.4,12.3,14,12.3,13.6z M13.5,16c0,0.3,0.1,0.5,0.1,0.7c0.1,0.2,0.1,0.3,0.3,0.4
		c0.1,0.1,0.3,0.1,0.4,0.1c0.2,0,0.3,0,0.4-0.1c0.1-0.1,0.2-0.2,0.3-0.4c0.1-0.2,0.1-0.4,0.1-0.7c0-0.3,0-0.6,0-1.1
		c0-0.4,0-0.8,0-1.1c0-0.3-0.1-0.5-0.1-0.7c-0.1-0.2-0.1-0.3-0.3-0.4c-0.1-0.1-0.3-0.1-0.4-0.1c-0.2,0-0.3,0-0.4,0.1
		c-0.1,0.1-0.2,0.2-0.3,0.4c-0.1,0.2-0.1,0.4-0.1,0.7c0,0.3,0,0.6,0,1.1C13.5,15.3,13.5,15.7,13.5,16z"/>
	<path class="st9" d="M18.3,16.1c0,0.2,0,0.3,0,0.4c0,0.1,0.1,0.2,0.1,0.3c0.1,0.1,0.1,0.2,0.2,0.2c0.1,0.1,0.2,0.1,0.4,0.1
		c0.1,0,0.3,0,0.4-0.1c0.1-0.1,0.2-0.1,0.2-0.2c0.1-0.1,0.1-0.2,0.1-0.3c0-0.1,0-0.3,0-0.4v-4.3H21v4.3c0,0.4-0.1,0.7-0.2,1
		c-0.1,0.3-0.3,0.5-0.4,0.6C20.3,17.9,20,18,19.8,18c-0.2,0.1-0.5,0.1-0.7,0.1c-0.3,0-0.5,0-0.7-0.1c-0.2,0-0.4-0.1-0.6-0.3
		c-0.2-0.1-0.3-0.3-0.4-0.6c-0.1-0.3-0.2-0.6-0.2-1v-4.3h1.2V16.1z"/>
	<path class="st9" d="M24.1,11.8c0.5,0,0.9,0.1,1.2,0.4c0.3,0.3,0.4,0.7,0.4,1.2c0,0.4-0.1,0.8-0.3,1c-0.2,0.3-0.4,0.4-0.8,0.5v0
		c0.3,0,0.5,0.1,0.7,0.3c0.1,0.2,0.2,0.4,0.3,0.8c0,0.1,0,0.2,0,0.4c0,0.1,0,0.3,0,0.5c0,0.3,0,0.6,0.1,0.8c0,0.2,0.1,0.3,0.2,0.4
		V18h-1.3c-0.1-0.1-0.1-0.2-0.1-0.3c0-0.1,0-0.2,0-0.4l0-1.2c0-0.2-0.1-0.4-0.2-0.6c-0.1-0.1-0.3-0.2-0.6-0.2h-0.7V18h-1.2v-6.2
		H24.1z M23.6,14.5c0.3,0,0.5-0.1,0.7-0.2c0.2-0.1,0.2-0.4,0.2-0.7c0-0.6-0.3-0.9-0.9-0.9h-0.6v1.8H23.6z"/>
	<path class="st9" d="M26.6,13.6c0-0.4,0.1-0.7,0.3-1c0.1-0.3,0.4-0.5,0.6-0.7c0.3-0.2,0.6-0.2,1.1-0.2c0.5,0,0.8,0.1,1.1,0.2
		c0.3,0.2,0.5,0.4,0.6,0.7c0.1,0.3,0.2,0.6,0.3,1c0,0.4,0.1,0.8,0.1,1.3c0,0.5,0,0.9-0.1,1.3c0,0.4-0.1,0.7-0.3,1
		c-0.1,0.3-0.4,0.5-0.6,0.6c-0.3,0.1-0.6,0.2-1.1,0.2c-0.5,0-0.8-0.1-1.1-0.2c-0.3-0.1-0.5-0.4-0.6-0.6c-0.1-0.3-0.2-0.6-0.3-1
		c0-0.4-0.1-0.8-0.1-1.3C26.5,14.4,26.5,14,26.6,13.6z M27.8,16c0,0.3,0.1,0.5,0.1,0.7c0.1,0.2,0.1,0.3,0.3,0.4
		c0.1,0.1,0.3,0.1,0.4,0.1c0.2,0,0.3,0,0.4-0.1c0.1-0.1,0.2-0.2,0.3-0.4c0.1-0.2,0.1-0.4,0.1-0.7c0-0.3,0-0.6,0-1.1
		c0-0.4,0-0.8,0-1.1c0-0.3-0.1-0.5-0.1-0.7c-0.1-0.2-0.1-0.3-0.3-0.4c-0.1-0.1-0.3-0.1-0.4-0.1c-0.2,0-0.3,0-0.4,0.1
		c-0.1,0.1-0.2,0.2-0.3,0.4c-0.1,0.2-0.1,0.4-0.1,0.7c0,0.3,0,0.6,0,1.1C27.8,15.3,27.8,15.7,27.8,16z"/>
</g>
</svg>
