<?xml version="1.0" encoding="utf-8"?>
<!-- Generator: Adobe Illustrator 19.2.1, SVG Export Plug-In . SVG Version: 6.00 Build 0)  -->
<svg version="1.1" id="Camada_1" xmlns="http://www.w3.org/2000/svg" xmlns:xlink="http://www.w3.org/1999/xlink" x="0px" y="0px"
	 viewBox="0 0 84.4 32.2" style="enable-background:new 0 0 84.4 32.2;" xml:space="preserve">
<style type="text/css">
	.st0{fill:#B3B3B3;}
	.st1{fill:url(#SVGID_1_);}
	.st2{fill:url(#SVGID_2_);}
	.st3{fill:#39B54A;}
</style>
<g>
	<path class="st0" d="M36.4,11c0,0.3,0,0.5,0.1,0.7c0,0.2,0.1,0.4,0.2,0.6c0.1,0.1,0.3,0.3,0.5,0.4c0.2,0.1,0.4,0.1,0.7,0.1
		c0.4,0,0.7-0.1,1-0.3s0.4-0.6,0.4-1.1c0-0.3,0-0.5-0.1-0.7s-0.2-0.4-0.3-0.5c-0.2-0.1-0.4-0.3-0.6-0.4c-0.3-0.1-0.6-0.2-1-0.4
		c-0.5-0.2-1-0.4-1.3-0.6s-0.7-0.4-0.9-0.7c-0.3-0.3-0.4-0.6-0.6-0.9c-0.1-0.4-0.2-0.8-0.2-1.2c0-1.1,0.3-2,0.9-2.5
		c0.6-0.6,1.5-0.8,2.6-0.8c0.5,0,1,0.1,1.4,0.2c0.4,0.1,0.8,0.3,1.1,0.5c0.3,0.3,0.6,0.6,0.7,1c0.2,0.4,0.3,0.9,0.3,1.4V6h-2.2
		c0-0.5-0.1-1-0.3-1.3c-0.2-0.3-0.5-0.4-1-0.4c-0.3,0-0.5,0-0.6,0.1c-0.2,0.1-0.3,0.2-0.4,0.3S36.6,5,36.6,5.1
		c0,0.2-0.1,0.3-0.1,0.5c0,0.4,0.1,0.6,0.2,0.9c0.1,0.2,0.5,0.5,1,0.7l1.8,0.8c0.4,0.2,0.8,0.4,1.1,0.6S41,9,41.2,9.2
		c0.2,0.2,0.3,0.5,0.3,0.8c0.1,0.3,0.1,0.6,0.1,1c0,1.2-0.3,2.1-1,2.6c-0.7,0.5-1.7,0.8-2.9,0.8c-1.3,0-2.2-0.3-2.8-0.8
		c-0.6-0.6-0.8-1.4-0.8-2.4v-0.5h2.3V11z"/>
	<path class="st0" d="M42.9,2.8h2.3v11.4h-2.3V2.8z"/>
	<path class="st0" d="M53.6,4.7h-2.5v9.5h-2.3V4.7h-2.5V2.8h7.3V4.7z"/>
	<path class="st0" d="M61,4.7h-4.1v2.7h3.8v1.9h-3.8v3.1h4.2v1.9h-6.5V2.8H61V4.7z"/>
	<path class="st0" d="M36.4,26.2c0,0.3,0,0.5,0.1,0.7c0,0.2,0.1,0.4,0.2,0.6s0.3,0.3,0.5,0.4c0.2,0.1,0.4,0.1,0.7,0.1
		c0.4,0,0.7-0.1,1-0.3c0.3-0.2,0.4-0.6,0.4-1.1c0-0.3,0-0.5-0.1-0.7s-0.2-0.4-0.3-0.5c-0.2-0.1-0.4-0.3-0.6-0.4
		c-0.3-0.1-0.6-0.2-1-0.4c-0.5-0.2-1-0.4-1.3-0.6c-0.4-0.2-0.7-0.4-0.9-0.7c-0.3-0.3-0.4-0.6-0.6-0.9c-0.1-0.4-0.2-0.8-0.2-1.2
		c0-1.1,0.3-2,0.9-2.5c0.6-0.6,1.5-0.8,2.6-0.8c0.5,0,1,0.1,1.4,0.2c0.4,0.1,0.8,0.3,1.1,0.5c0.3,0.3,0.6,0.6,0.7,1
		c0.2,0.4,0.3,0.9,0.3,1.4v0.3h-2.2c0-0.5-0.1-1-0.3-1.3c-0.2-0.3-0.5-0.4-1-0.4c-0.3,0-0.5,0-0.6,0.1c-0.2,0.1-0.3,0.2-0.4,0.3
		s-0.2,0.3-0.2,0.4s-0.1,0.3-0.1,0.5c0,0.4,0.1,0.6,0.2,0.9c0.1,0.2,0.5,0.5,1,0.7l1.8,0.8c0.4,0.2,0.8,0.4,1.1,0.6s0.5,0.4,0.7,0.7
		c0.2,0.2,0.3,0.5,0.3,0.8c0.1,0.3,0.1,0.6,0.1,1c0,1.2-0.3,2.1-1,2.6c-0.7,0.5-1.7,0.8-2.9,0.8c-1.3,0-2.2-0.3-2.8-0.8
		c-0.6-0.6-0.8-1.4-0.8-2.4v-0.5h2.3V26.2z"/>
	<path class="st0" d="M49.2,19.9h-4.1v2.7h3.8v1.9h-3.8v3.1h4.2v1.9h-6.5V18h6.4V19.9z"/>
	<path class="st0" d="M55.5,20.7c0-0.2-0.1-0.4-0.2-0.6c-0.1-0.2-0.2-0.3-0.4-0.5c-0.2-0.1-0.4-0.2-0.6-0.2c-0.6,0-1,0.3-1.2,0.9
		c-0.2,0.6-0.4,1.6-0.4,3.1c0,0.7,0,1.3,0.1,1.9c0,0.6,0.1,1,0.2,1.4s0.3,0.7,0.5,0.9s0.5,0.3,0.8,0.3c0.1,0,0.3,0,0.5-0.1
		c0.2-0.1,0.3-0.2,0.5-0.3c0.1-0.1,0.3-0.3,0.4-0.6c0.1-0.2,0.1-0.5,0.1-0.8V25h-1.5v-1.7h3.7v6.2h-1.7v-1.1h0c-0.3,0.4-0.6,0.8-1,1
		c-0.4,0.2-0.9,0.3-1.4,0.3c-0.7,0-1.3-0.1-1.7-0.4c-0.4-0.2-0.8-0.6-1-1.1c-0.3-0.5-0.4-1.1-0.5-1.9c-0.1-0.8-0.1-1.6-0.1-2.6
		c0-1,0.1-1.8,0.2-2.5c0.1-0.7,0.3-1.3,0.6-1.8c0.3-0.5,0.7-0.8,1.2-1.1c0.5-0.2,1.1-0.4,1.8-0.4c1.3,0,2.2,0.3,2.7,0.9
		s0.8,1.5,0.8,2.7h-2.2C55.6,21.2,55.5,21,55.5,20.7z"/>
	<path class="st0" d="M61.6,26c0,0.3,0,0.6,0.1,0.8c0,0.2,0.1,0.4,0.2,0.6s0.2,0.3,0.4,0.4c0.2,0.1,0.4,0.2,0.7,0.2
		c0.3,0,0.5-0.1,0.7-0.2c0.2-0.1,0.3-0.2,0.4-0.4s0.2-0.4,0.2-0.6s0.1-0.5,0.1-0.8v-8h2.3v8c0,0.7-0.1,1.3-0.3,1.8
		c-0.2,0.5-0.5,0.9-0.8,1.1c-0.3,0.3-0.7,0.5-1.2,0.6c-0.4,0.1-0.9,0.1-1.4,0.1c-0.5,0-0.9,0-1.4-0.1c-0.4-0.1-0.8-0.3-1.2-0.5
		c-0.3-0.3-0.6-0.6-0.8-1.1c-0.2-0.5-0.3-1.1-0.3-1.9v-8h2.3V26z"/>
	<path class="st0" d="M72.3,18c1,0,1.7,0.2,2.2,0.7c0.5,0.5,0.8,1.2,0.8,2.2c0,0.8-0.2,1.4-0.5,1.9s-0.8,0.8-1.4,0.9v0
		c0.6,0.1,1,0.3,1.3,0.6s0.4,0.8,0.5,1.4c0,0.2,0,0.4,0,0.7c0,0.3,0,0.5,0,0.8c0,0.6,0.1,1.1,0.1,1.4c0.1,0.3,0.2,0.5,0.4,0.7v0.1
		h-2.5c-0.1-0.2-0.2-0.3-0.2-0.6S73,28.5,73,28.2L72.9,26c0-0.4-0.1-0.8-0.3-1.1c-0.2-0.3-0.5-0.4-1-0.4h-1.2v4.8H68V18H72.3z
		 M71.3,23c0.6,0,1-0.1,1.3-0.4c0.3-0.3,0.4-0.7,0.4-1.3c0-1.1-0.5-1.6-1.6-1.6h-1.1V23H71.3z"/>
	<path class="st0" d="M76.8,21.3c0.1-0.7,0.3-1.4,0.5-1.9c0.3-0.5,0.7-0.9,1.2-1.2c0.5-0.3,1.2-0.4,2.1-0.4c0.9,0,1.6,0.1,2.1,0.4
		c0.5,0.3,0.9,0.7,1.2,1.2c0.3,0.5,0.4,1.1,0.5,1.9c0.1,0.7,0.1,1.5,0.1,2.4c0,0.9,0,1.7-0.1,2.4c-0.1,0.7-0.3,1.3-0.5,1.9
		c-0.3,0.5-0.7,0.9-1.2,1.2c-0.5,0.3-1.2,0.4-2.1,0.4c-0.9,0-1.6-0.1-2.1-0.4c-0.5-0.3-0.9-0.7-1.2-1.2c-0.3-0.5-0.4-1.1-0.5-1.9
		c-0.1-0.7-0.1-1.5-0.1-2.4C76.7,22.9,76.7,22.1,76.8,21.3z M79,25.7c0,0.5,0.1,1,0.2,1.3c0.1,0.3,0.3,0.6,0.5,0.7
		c0.2,0.2,0.5,0.2,0.8,0.2c0.3,0,0.6-0.1,0.8-0.2c0.2-0.2,0.4-0.4,0.5-0.7c0.1-0.3,0.2-0.8,0.2-1.3c0-0.5,0.1-1.2,0.1-2
		c0-0.8,0-1.4-0.1-2c0-0.5-0.1-1-0.2-1.3c-0.1-0.3-0.3-0.6-0.5-0.7s-0.5-0.2-0.8-0.2c-0.3,0-0.6,0.1-0.8,0.2s-0.4,0.4-0.5,0.7
		c-0.1,0.3-0.2,0.8-0.2,1.3S79,23,79,23.7C79,24.5,79,25.1,79,25.7z"/>
</g>
<linearGradient id="SVGID_1_" gradientUnits="userSpaceOnUse" x1="15.7559" y1="14.1377" x2="15.7559" y2="0">
	<stop  offset="0" style="stop-color:#999999"/>
	<stop  offset="1" style="stop-color:#E6E6E6"/>
</linearGradient>
<path class="st1" d="M25.4,9.7c0-5.3-4.3-9.7-9.7-9.7S6.1,4.3,6.1,9.7v4.5h3.6l0-4.5c0-3.3,2.7-6,6-6s6,2.7,6,6l0,4.5h3.6V9.7z"/>
<linearGradient id="SVGID_2_" gradientUnits="userSpaceOnUse" x1="2.5417" y1="21.3421" x2="28.8631" y2="21.3421">
	<stop  offset="0" style="stop-color:#B28A39"/>
	<stop  offset="0.1178" style="stop-color:#E2C754"/>
	<stop  offset="0.89" style="stop-color:#E2C754"/>
	<stop  offset="1" style="stop-color:#B28A39"/>
</linearGradient>
<path class="st2" d="M25.4,31.2H6c-1.9,0-3.4-1.5-3.4-3.4V14.9c0-1.9,1.5-3.4,3.4-3.4h19.5c1.9,0,3.4,1.5,3.4,3.4v12.9
	C28.9,29.7,27.3,31.2,25.4,31.2z"/>
<g>
	<path class="st3" d="M31.5,13.9l-15,15l-2.8,2.8c-0.4,0.4-0.9,0.6-1.4,0.6s-1-0.2-1.4-0.6l-2.8-2.8l-7.5-7.5C0.2,21,0,20.4,0,19.9
		s0.2-1,0.6-1.4l2.8-2.8c0.4-0.4,0.9-0.6,1.4-0.6s1,0.2,1.4,0.6l6.1,6.1L25.8,8.2c0.4-0.4,0.9-0.6,1.4-0.6c0.5,0,1,0.2,1.4,0.6
		l2.8,2.8c0.4,0.4,0.6,0.9,0.6,1.4C32,13,31.8,13.5,31.5,13.9z"/>
</g>
</svg>
