<?xml version="1.0" encoding="utf-8"?>
<!-- Generator: Adobe Illustrator 19.2.1, SVG Export Plug-In . SVG Version: 6.00 Build 0)  -->
<svg version="1.1" id="Camada_1" xmlns="http://www.w3.org/2000/svg" xmlns:xlink="http://www.w3.org/1999/xlink" x="0px" y="0px"
	 viewBox="0 0 40 40" style="enable-background:new 0 0 40 40;" xml:space="preserve">
<style type="text/css">
	.st0{fill:#FFFFFF;}
</style>
<path class="st0" d="M20,2c9.9,0,18,8.1,18,18s-8.1,18-18,18S2,29.9,2,20S10.1,2,20,2 M20,0C9,0,0,9,0,20s9,20,20,20s20-9,20-20
	S31,0,20,0L20,0z"/>
<g id="YBNLit.tif_2_">
	<g>
		<path class="st0" d="M34.1,21.1c-0.1,0.3-0.1,0.5-0.1,0.8c-0.3,2.1-1,4-2.2,5.7c-0.3,0.4-0.6,0.6-1.1,0.6
			c-0.5-0.1-0.8-0.3-0.9-0.8c-0.1-0.2,0-0.4,0-0.6c0-0.1,0.1-0.2-0.1-0.2c-0.4-0.2-0.8-0.4-1.2-0.7c-0.4-0.3-0.6-0.8-0.4-1.2
			c0.2-0.4,0.8-0.6,1.2-0.3c0.2,0.1,0.4,0.3,0.7,0.4c0.2,0.1,0.4,0.2,0.6,0.4c0.3-0.7,0.6-1.3,0.8-2c0.2-0.7,0.3-1.4,0.4-2.1
			c0-0.2,0-0.2-0.2-0.2c-0.5,0-0.9,0-1.4,0c-0.4,0-0.7-0.3-0.8-0.7c-0.1-0.4,0.1-0.7,0.4-0.9c0.2-0.1,0.3-0.1,0.5-0.1
			c0.4,0,0.8,0,1.3,0c0.2,0,0.2,0,0.2-0.2c-0.2-2.3-1.1-4.4-2.5-6.3c-0.8-1-1.6-1.8-2.7-2.5c-0.3,0.4-0.5,0.9-0.8,1.3
			c-0.3,0.5-0.9,0.6-1.4,0.2c-0.3-0.3-0.3-0.7-0.1-1.1c0.2-0.4,0.4-0.8,0.7-1.2c0.1-0.1,0.1-0.1,0-0.2c-1.3-0.6-2.7-1-4.2-1.1
			c0,0,0,0,0,0c0,0.5,0,1,0,1.5c0,0.4-0.2,0.7-0.5,0.8c-0.3,0.1-0.6,0.1-0.9-0.1c-0.3-0.2-0.3-0.4-0.4-0.7c0-0.4,0-0.9,0-1.3
			c0-0.2,0-0.2-0.2-0.2c-0.9,0.1-1.7,0.2-2.6,0.5c-0.5,0.2-1,0.3-1.4,0.6c-0.1,0.1-0.1,0.1-0.1,0.2c0.3,0.4,0.5,0.8,0.7,1.2
			c0.2,0.4,0.1,0.9-0.3,1.1c-0.4,0.2-0.9,0.2-1.1-0.2c-0.3-0.4-0.6-1-0.9-1.4C12.1,11,11,12,10.1,13.3c0.5,0.2,0.9,0.5,1.4,0.8
			c0.4,0.2,0.5,0.8,0.3,1.1c-0.2,0.4-0.7,0.6-1.1,0.4c-0.5-0.2-1-0.5-1.4-0.8c-0.3,0.5-0.5,1.1-0.7,1.7c-0.2,0.8-0.4,1.6-0.5,2.4
			c0,0.2,0,0.3,0.2,0.2c0.4,0,0.9,0,1.3,0c0.5,0,0.9,0.4,0.9,0.8c0,0.5-0.3,0.9-0.8,0.9c-0.5,0-1,0-1.5,0c-0.1,0-0.2,0-0.2,0.2
			c0.1,1.4,0.5,2.8,1.1,4.1c0,0,0,0,0.1,0.1c0.4-0.3,0.9-0.5,1.3-0.8c0.4-0.2,0.9-0.1,1.2,0.3c0.2,0.3,0.2,0.9-0.2,1.2
			c-0.4,0.3-0.8,0.5-1.3,0.7c-0.1,0.1-0.1,0.1-0.1,0.2c0.2,0.6,0,1.1-0.5,1.4c-0.4,0.2-1,0.2-1.3-0.3c-0.4-0.6-0.8-1.2-1.1-1.9
			c-0.7-1.5-1.1-3-1.3-4.6c0-0.1,0-0.2-0.1-0.2c0-0.8,0-1.5,0-2.3C6,18.8,6,18.7,6,18.7c0.1-0.7,0.2-1.4,0.4-2.1
			C8.2,9,15.9,4.4,23.5,6.3c5.5,1.4,9.6,6,10.4,11.6c0,0.3,0,0.6,0.1,1C34.1,19.6,34.1,20.4,34.1,21.1z"/>
		<path class="st0" d="M19.9,21.9c-0.7,0-1.3-0.4-1.7-1.1c-0.3-0.7-0.2-1.5,0.3-2.1c0.5-0.6,1.2-0.8,2-0.6c0.2,0,0.3,0,0.5,0
			c2.6-1.1,5.2-2.2,7.8-3.3c0.1,0,0.1-0.1,0.2-0.1c0.1,0,0.1,0,0.1,0.1c0,0.1,0,0.1,0,0.1c-0.1,0-0.1,0.1-0.2,0.1
			c-2.2,1.7-4.5,3.4-6.7,5.1c-0.1,0.1-0.2,0.2-0.3,0.4C21.7,21.3,20.9,21.9,19.9,21.9z"/>
	</g>
</g>
</svg>
