<?xml version="1.0" encoding="utf-8"?>
<!-- Generator: Adobe Illustrator 19.2.1, SVG Export Plug-In . SVG Version: 6.00 Build 0)  -->
<svg version="1.1" id="Camada_1" xmlns="http://www.w3.org/2000/svg" xmlns:xlink="http://www.w3.org/1999/xlink" x="0px" y="0px"
	 viewBox="0 0 40 40" style="enable-background:new 0 0 40 40;" xml:space="preserve">
<style type="text/css">
	.st0{fill:#FFFFFF;}
</style>
<path class="st0" d="M20,2c9.9,0,18,8.1,18,18s-8.1,18-18,18S2,29.9,2,20S10.1,2,20,2 M20,0C9,0,0,9,0,20s9,20,20,20s20-9,20-20
	S31,0,20,0L20,0z"/>
<path class="st0" d="M6.1,33.8c-0.1-3.7,1.4-6.3,3-9c0.2-0.3,0.4-0.7,0.6-1c1.5-2.3,3.3-5.1,3.3-9.9c0-5.3-3.8-9.3-3.8-9.3l1.3-1.2
	c0.2,0.2,4.3,4.5,4.3,10.5c0,5.2-2.1,8.5-3.6,10.8c-0.2,0.3-0.4,0.7-0.6,1c-1.5,2.5-2.8,4.9-2.7,8.1L6.1,33.8z"/>
<path class="st0" d="M33.8,33.8l-1.7,0c0.1-3.2-1.2-5.5-2.7-8.1c-0.2-0.3-0.4-0.6-0.6-1c-1.5-2.4-3.6-5.6-3.6-10.8
	c0-6,4.2-10.3,4.3-10.5l1.3,1.2c0,0-3.8,4-3.8,9.3c0,4.7,1.8,7.6,3.3,9.9c0.2,0.4,0.4,0.7,0.6,1C32.4,27.5,33.9,30.2,33.8,33.8z"/>
<path class="st0" d="M20,30.3c-6.4,0-11.6-2.1-11.8-2.2l0.8-1.8c0,0,5,2,11.1,2c6,0,11-2,11.1-2l0.8,1.8
	C31.6,28.2,26.4,30.3,20,30.3z"/>
<ellipse class="st0" cx="20" cy="23.2" rx="0.5" ry="1.2"/>
<polygon class="st0" points="11.2,16.7 8,13.6 8,15 6,15 6,18 8,18 8,19.9 "/>
<polygon class="st0" points="28.8,16.7 32,13.6 32,15 34,15 34,18 32,18 32,19.9 "/>
</svg>
