<?xml version="1.0" encoding="utf-8"?>
<!-- Generator: Adobe Illustrator 19.2.1, SVG Export Plug-In . SVG Version: 6.00 Build 0)  -->
<svg version="1.1" id="Capa_1" xmlns="http://www.w3.org/2000/svg" xmlns:xlink="http://www.w3.org/1999/xlink" x="0px" y="0px"
	 viewBox="0 0 35 35" style="enable-background:new 0 0 35 35;" xml:space="preserve">
<style type="text/css">
	.st0{fill:#899EAA;}
</style>
<g>
	<path id="Facebook" class="st0" d="M12.8,6.8c0,0.9,0,4.8,0,4.8H9.3v5.9h3.5V35h7.3V17.5H25c0,0,0.5-2.8,0.7-5.9
		c-0.6,0-5.5,0-5.5,0s0-3.4,0-4c0-0.6,0.8-1.4,1.6-1.4c0.8,0,2.4,0,4,0c0-0.8,0-3.6,0-6.1c-2,0-4.4,0-5.4,0
		C12.7,0,12.8,5.9,12.8,6.8z"/>
</g>
</svg>
