<?xml version="1.0" encoding="utf-8"?>
<!-- Generator: Adobe Illustrator 19.2.1, SVG Export Plug-In . SVG Version: 6.00 Build 0)  -->
<svg version="1.1" id="Capa_1" xmlns="http://www.w3.org/2000/svg" xmlns:xlink="http://www.w3.org/1999/xlink" x="0px" y="0px"
	 viewBox="0 0 35 35" style="enable-background:new 0 0 35 35;" xml:space="preserve">
<style type="text/css">
	.st0{fill:#899EAA;}
</style>
<g>
	<path id="Google" class="st0" d="M28.9,0h-9.5c-2.5,0-5.6,0.4-8.2,2.5c-2,1.7-2.9,4-2.9,6.2c0,3.6,2.8,7.2,7.6,7.2
		c0.5,0,1,0,1.5-0.1c-0.2,0.5-0.5,1-0.5,1.8c0,1.4,0.7,2.3,1.4,3.1c-2.1,0.1-5.9,0.4-8.8,2.1c-2.7,1.6-3.5,4-3.5,5.6
		c0,3.4,3.2,6.6,9.9,6.6c7.9,0,12.1-4.4,12.1-8.7c0-3.2-1.8-4.7-3.9-6.4l-1.7-1.3c-0.5-0.4-1.2-1-1.2-2c0-1,0.7-1.7,1.3-2.3
		c1.9-1.5,3.9-3.1,3.9-6.5c0-3.5-2.2-5.3-3.3-6.2h2.9L28.9,0z M24.8,28.1c0,2.8-2.3,5-6.8,5c-4.9,0-8.1-2.3-8.1-5.6
		c0-3.3,2.9-4.4,4-4.7c1.9-0.6,4.4-0.7,4.8-0.7c0.5,0,0.7,0,1.1,0C23.3,24.5,24.8,25.8,24.8,28.1z M21.1,13.3
		c-0.7,0.7-2,1.3-3.1,1.3c-4,0-5.7-5.1-5.7-8.2c0-1.2,0.2-2.4,1-3.4c0.7-0.9,2-1.5,3.2-1.5c3.8,0,5.8,5.1,5.8,8.5
		C22.3,10.8,22.2,12.3,21.1,13.3z"/>
</g>
</svg>
