<?xml version="1.0" encoding="utf-8"?>
<!-- Generator: Adobe Illustrator 19.2.1, SVG Export Plug-In . SVG Version: 6.00 Build 0)  -->
<svg version="1.1" id="Capa_1" xmlns="http://www.w3.org/2000/svg" xmlns:xlink="http://www.w3.org/1999/xlink" x="0px" y="0px"
	 viewBox="0 0 35 35" style="enable-background:new 0 0 35 35;" xml:space="preserve">
<style type="text/css">
	.st0{fill:#899EAA;}
</style>
<g>
	<path id="Twitter" class="st0" d="M26.2,26.3h-8.6c-1.2,0-2.2-0.4-3.1-1.3c-0.8-0.8-1.3-1.9-1.3-3.1v-3.1h12.3
		c1.1,0,2.1-0.4,2.9-1.2c0.8-0.8,1.2-1.8,1.2-2.9c0-1.1-0.4-2.1-1.2-2.9c-0.8-0.8-1.8-1.2-2.9-1.2H13.2V4.4c0-1.2-0.4-2.2-1.3-3.1
		C11.1,0.4,10,0,8.9,0C7.6,0,6.6,0.4,5.7,1.3C4.9,2.1,4.5,3.1,4.5,4.4v17.6c0,3.6,1.3,6.7,3.8,9.3c2.6,2.6,5.6,3.8,9.2,3.8h8.6
		c1.2,0,2.2-0.4,3.1-1.3c0.9-0.9,1.3-1.9,1.3-3.1c0-1.2-0.4-2.2-1.3-3.1C28.4,26.7,27.4,26.3,26.2,26.3z"/>
</g>
</svg>
