<?xml version="1.0" encoding="utf-8"?>
<!-- Generator: Adobe Illustrator 19.2.1, SVG Export Plug-In . SVG Version: 6.00 Build 0)  -->
<svg version="1.1" id="Capa_1" xmlns="http://www.w3.org/2000/svg" xmlns:xlink="http://www.w3.org/1999/xlink" x="0px" y="0px"
	 viewBox="0 0 35 35" style="enable-background:new 0 0 35 35;" xml:space="preserve">
<style type="text/css">
	.st0{fill:#899EAA;}
</style>
<g>
	<path id="YouTube" class="st0" d="M27.6,25.6h-1.9l0-1.1c0-0.5,0.4-0.9,0.9-0.9h0.1c0.5,0,0.9,0.4,0.9,0.9L27.6,25.6z M20.4,23.2
		c-0.5,0-0.9,0.3-0.9,0.7v5.4c0,0.4,0.4,0.7,0.9,0.7c0.5,0,0.9-0.3,0.9-0.7v-5.4C21.3,23.5,20.9,23.2,20.4,23.2z M32.1,20.2v10.3
		c0,2.5-2.1,4.5-4.8,4.5H7.7c-2.6,0-4.8-2-4.8-4.5V20.2c0-2.5,2.1-4.5,4.8-4.5h19.6C29.9,15.7,32.1,17.7,32.1,20.2z M9,31.6l0-10.9
		l2.4,0v-1.6l-6.5,0v1.6l2,0v10.9H9z M16.3,22.4h-2v5.8c0,0.8,0.1,1.3,0,1.4c-0.2,0.5-0.9,0.9-1.2,0c0-0.2,0-0.6,0-1.4l0-5.8h-2
		l0,5.8c0,0.9,0,1.5,0,1.8c0,0.5,0,1.1,0.5,1.5c0.9,0.7,2.7-0.1,3.1-1l0,1.2l1.6,0L16.3,22.4L16.3,22.4z M22.8,29l0-4.8
		c0-1.8-1.4-2.9-3.2-1.5l0-3.6l-2,0l0,12.4l1.7,0l0.2-0.8C21.4,32.7,22.8,31.4,22.8,29z M29.1,28.4l-1.5,0c0,0.1,0,0.1,0,0.2v0.8
		c0,0.5-0.4,0.8-0.8,0.8h-0.3c-0.5,0-0.8-0.4-0.8-0.8v-0.1v-0.9v-1.2h3.5v-1.3c0-1,0-1.9-0.1-2.5c-0.2-1.7-2.7-2-3.9-1.1
		c-0.4,0.3-0.7,0.6-0.9,1.1c-0.2,0.5-0.3,1.2-0.3,2v2.9C24,33.2,29.8,32.5,29.1,28.4z M21.3,12.7c0.1,0.3,0.3,0.5,0.5,0.6
		c0.2,0.2,0.5,0.2,0.8,0.2c0.3,0,0.6-0.1,0.8-0.2c0.2-0.2,0.4-0.4,0.6-0.7l0,0.8h2.3V3.8h-1.8v7.5c0,0.4-0.3,0.7-0.7,0.7
		c-0.4,0-0.7-0.3-0.7-0.7V3.8h-1.9v6.5c0,0.8,0,1.4,0,1.7C21.2,12.2,21.2,12.5,21.3,12.7z M14.5,7.3c0-0.9,0.1-1.6,0.2-2.2
		c0.2-0.5,0.4-0.9,0.8-1.2c0.4-0.3,0.9-0.5,1.5-0.5c0.5,0,1,0.1,1.3,0.3c0.4,0.2,0.7,0.5,0.9,0.8c0.2,0.3,0.3,0.7,0.4,1
		c0.1,0.3,0.1,0.9,0.1,1.6v2.4c0,0.9,0,1.5-0.1,2c-0.1,0.4-0.2,0.8-0.4,1.2c-0.2,0.4-0.5,0.6-0.9,0.8c-0.4,0.2-0.8,0.3-1.2,0.3
		c-0.5,0-0.9-0.1-1.3-0.2c-0.4-0.1-0.6-0.4-0.8-0.7c-0.2-0.3-0.3-0.7-0.4-1.1c-0.1-0.4-0.1-1.1-0.1-1.9L14.5,7.3L14.5,7.3z
		 M16.2,11.1c0,0.5,0.4,1,0.9,1c0.5,0,0.9-0.4,0.9-1V6c0-0.5-0.4-1-0.9-1c-0.5,0-0.9,0.4-0.9,1V11.1z M10,13.7h2.1l0-7.4L14.6,0
		h-2.3L11,4.7L9.6,0H7.3L10,6.3L10,13.7z"/>
</g>
</svg>
